<svg width="55" height="51" viewBox="0 0 55 51" fill="none" xmlns="http://www.w3.org/2000/svg">
<path d="M36.9521 19.6738C36.4646 12.815 33.4042 6.12833 27.6625 0.916664C21.8667 6.1775 18.6708 12.8642 18.0479 19.6738C21.5146 21.3454 24.7104 23.5088 27.5 26.1392C30.2896 23.5333 33.4854 21.37 36.9521 19.6738ZM19.3479 26.1883C18.9688 25.9425 18.5354 25.7213 18.1292 25.4754C18.5354 25.7458 18.9688 25.9425 19.3479 26.1883ZM27.5 33.9813C21.6771 25.9179 11.7375 20.5833 0.416672 20.5833C0.416672 33.6617 9.51667 44.7242 22.1646 48.8296C23.8708 49.395 25.6583 49.8129 27.5 50.0833C29.3417 49.7883 31.1021 49.3704 32.8354 48.8296C45.4833 44.7242 54.5833 33.6617 54.5833 20.5833C43.2625 20.5833 33.3229 25.9179 27.5 33.9813Z" fill="#1599F9"/>
</svg>
